<svg xmlns="http://www.w3.org/2000/svg" xmlns:xlink="http://www.w3.org/1999/xlink" width="512" zoomAndPan="magnify" viewBox="0 0 384 383.999986" height="512" preserveAspectRatio="xMidYMid meet" version="1.0"><defs><g/></defs><rect x="-38.4" width="460.8" fill="#ffffff" y="-38.399999" height="460.799983" fill-opacity="1"/><rect x="-38.4" width="460.8" fill="#000000" y="-38.399999" height="460.799983" fill-opacity="1"/><g fill="#f9ab00" fill-opacity="1"><g transform="translate(19.200006, 260.72726)"><g><path d="M 177.390625 -149.96875 L 199.234375 0 L 162.390625 0 L 150.828125 -83.765625 L 114.828125 0 L 95.125 0 L 59.125 -84.1875 L 47.34375 0 L 10.71875 0 L 32.5625 -149.96875 L 64.90625 -149.96875 L 105.1875 -55.703125 L 145.46875 -149.96875 Z M 177.390625 -149.96875 "/></g></g></g><g fill="#ffffff" fill-opacity="1"><g transform="translate(229.165904, 260.72726)"><g><path d="M 67.703125 2.78125 C 49.847656 2.78125 35.492188 -1.75 24.640625 -10.8125 C 13.785156 -19.882812 8.210938 -32.632812 7.921875 -49.0625 L 44.984375 -49.0625 C 45.273438 -42.207031 47.3125 -36.882812 51.09375 -33.09375 C 54.875 -29.3125 60.335938 -27.421875 67.484375 -27.421875 C 74.191406 -27.421875 79.257812 -28.707031 82.6875 -31.28125 C 86.125 -33.851562 87.84375 -37.351562 87.84375 -41.78125 C 87.84375 -46.632812 85.625 -50.378906 81.1875 -53.015625 C 76.757812 -55.660156 69.765625 -58.484375 60.203125 -61.484375 C 50.203125 -64.628906 41.953125 -67.769531 35.453125 -70.90625 C 28.953125 -74.050781 23.378906 -78.765625 18.734375 -85.046875 C 14.097656 -91.335938 11.78125 -99.625 11.78125 -109.90625 C 11.78125 -118.1875 14.097656 -125.578125 18.734375 -132.078125 C 23.378906 -138.578125 29.84375 -143.644531 38.125 -147.28125 C 46.414062 -150.925781 55.914062 -152.75 66.625 -152.75 C 76.332031 -152.75 85.398438 -150.960938 93.828125 -147.390625 C 102.253906 -143.816406 109.109375 -138.351562 114.390625 -131 C 119.679688 -123.644531 122.398438 -114.613281 122.546875 -103.90625 L 86.125 -103.90625 C 85.976562 -109.1875 84.296875 -113.613281 81.078125 -117.1875 C 77.867188 -120.757812 73.050781 -122.546875 66.625 -122.546875 C 61.050781 -122.546875 56.726562 -121.332031 53.65625 -118.90625 C 50.59375 -116.476562 49.0625 -113.191406 49.0625 -109.046875 C 49.0625 -104.191406 51.273438 -100.476562 55.703125 -97.90625 C 60.128906 -95.332031 67.054688 -92.546875 76.484375 -89.546875 C 86.484375 -86.546875 94.726562 -83.472656 101.21875 -80.328125 C 107.71875 -77.191406 113.320312 -72.445312 118.03125 -66.09375 C 122.75 -59.738281 125.109375 -51.347656 125.109375 -40.921875 C 125.109375 -32.921875 122.859375 -25.597656 118.359375 -18.953125 C 113.859375 -12.316406 107.285156 -7.035156 98.640625 -3.109375 C 90.003906 0.816406 79.691406 2.78125 67.703125 2.78125 Z M 67.703125 2.78125 "/></g></g></g></svg>