<svg xmlns="http://www.w3.org/2000/svg" xmlns:xlink="http://www.w3.org/1999/xlink" width="275" zoomAndPan="magnify" viewBox="0 0 206.25 30.000001" height="40" preserveAspectRatio="xMidYMid meet" version="1.0"><defs><g/></defs><g fill="#f9ab00" fill-opacity="1"><g transform="translate(2.963706, 21.837253)"><g><path d="M 21.265625 -17.984375 L 23.890625 0 L 19.46875 0 L 18.078125 -10.046875 L 13.765625 0 L 11.40625 0 L 7.09375 -10.09375 L 5.671875 0 L 1.28125 0 L 3.90625 -17.984375 L 7.78125 -17.984375 L 12.609375 -6.671875 L 17.4375 -17.984375 Z M 21.265625 -17.984375 "/></g></g></g><g fill="#f9ab00" fill-opacity="1"><g transform="translate(28.138468, 21.837253)"><g><path d="M 10.6875 0.328125 C 8.957031 0.328125 7.347656 -0.0546875 5.859375 -0.828125 C 4.378906 -1.609375 3.203125 -2.707031 2.328125 -4.125 C 1.460938 -5.550781 1.03125 -7.171875 1.03125 -8.984375 C 1.03125 -10.804688 1.460938 -12.425781 2.328125 -13.84375 C 3.203125 -15.269531 4.378906 -16.367188 5.859375 -17.140625 C 7.347656 -17.921875 8.957031 -18.3125 10.6875 -18.3125 C 12.414062 -18.3125 14.019531 -17.921875 15.5 -17.140625 C 16.976562 -16.367188 18.15625 -15.269531 19.03125 -13.84375 C 19.90625 -12.425781 20.34375 -10.804688 20.34375 -8.984375 C 20.34375 -7.171875 19.90625 -5.550781 19.03125 -4.125 C 18.15625 -2.707031 16.976562 -1.609375 15.5 -0.828125 C 14.019531 -0.0546875 12.414062 0.328125 10.6875 0.328125 Z M 10.6875 -3.78125 C 11.644531 -3.78125 12.515625 -4 13.296875 -4.4375 C 14.078125 -4.882812 14.679688 -5.5 15.109375 -6.28125 C 15.546875 -7.070312 15.765625 -7.972656 15.765625 -8.984375 C 15.765625 -9.992188 15.546875 -10.894531 15.109375 -11.6875 C 14.679688 -12.476562 14.078125 -13.09375 13.296875 -13.53125 C 12.515625 -13.976562 11.644531 -14.203125 10.6875 -14.203125 C 9.726562 -14.203125 8.859375 -13.976562 8.078125 -13.53125 C 7.296875 -13.09375 6.6875 -12.476562 6.25 -11.6875 C 5.8125 -10.894531 5.59375 -9.992188 5.59375 -8.984375 C 5.59375 -7.972656 5.8125 -7.070312 6.25 -6.28125 C 6.6875 -5.5 7.296875 -4.882812 8.078125 -4.4375 C 8.859375 -4 9.726562 -3.78125 10.6875 -3.78125 Z M 10.6875 -3.78125 "/></g></g></g><g fill="#f9ab00" fill-opacity="1"><g transform="translate(49.511321, 21.837253)"><g><path d="M 9.0625 -6.0625 L 13.078125 -17.984375 L 17.796875 -17.984375 L 11.125 0 L 6.9375 0 L 0.25 -17.984375 L 5.03125 -17.984375 Z M 9.0625 -6.0625 "/></g></g></g><g fill="#f9ab00" fill-opacity="1"><g transform="translate(67.570351, 21.837253)"><g><path d="M 6.734375 0 L 2.234375 0 L 2.234375 -17.984375 L 6.734375 -17.984375 Z M 6.734375 0 "/></g></g></g><g fill="#f9ab00" fill-opacity="1"><g transform="translate(76.50995, 21.837253)"><g><path d="M 6.609375 -7.328125 L 6.609375 -3.828125 L 13.96875 -3.828125 L 13.96875 0 L 2.109375 0 L 2.109375 -17.984375 L 13.71875 -17.984375 L 13.71875 -14.15625 L 6.609375 -14.15625 L 6.609375 -11.046875 L 13.453125 -11.046875 L 13.453125 -7.328125 Z M 6.609375 -7.328125 "/></g></g></g><g fill="#ffffff" fill-opacity="1"><g transform="translate(91.84779, 21.837253)"><g><path d="M 8.125 0.328125 C 5.976562 0.328125 4.253906 -0.210938 2.953125 -1.296875 C 1.648438 -2.378906 0.984375 -3.90625 0.953125 -5.875 L 5.390625 -5.875 C 5.429688 -5.0625 5.675781 -4.425781 6.125 -3.96875 C 6.582031 -3.507812 7.238281 -3.28125 8.09375 -3.28125 C 8.894531 -3.28125 9.5 -3.4375 9.90625 -3.75 C 10.320312 -4.0625 10.53125 -4.484375 10.53125 -5.015625 C 10.53125 -5.585938 10.265625 -6.03125 9.734375 -6.34375 C 9.203125 -6.664062 8.363281 -7.007812 7.21875 -7.375 C 6.019531 -7.75 5.03125 -8.125 4.25 -8.5 C 3.46875 -8.875 2.796875 -9.4375 2.234375 -10.1875 C 1.679688 -10.945312 1.40625 -11.941406 1.40625 -13.171875 C 1.40625 -14.171875 1.679688 -15.054688 2.234375 -15.828125 C 2.796875 -16.609375 3.570312 -17.21875 4.5625 -17.65625 C 5.5625 -18.09375 6.703125 -18.3125 7.984375 -18.3125 C 9.148438 -18.3125 10.238281 -18.097656 11.25 -17.671875 C 12.257812 -17.242188 13.082031 -16.585938 13.71875 -15.703125 C 14.351562 -14.828125 14.675781 -13.742188 14.6875 -12.453125 L 10.328125 -12.453125 C 10.304688 -13.085938 10.101562 -13.617188 9.71875 -14.046875 C 9.332031 -14.472656 8.753906 -14.6875 7.984375 -14.6875 C 7.316406 -14.6875 6.796875 -14.539062 6.421875 -14.25 C 6.054688 -13.957031 5.875 -13.566406 5.875 -13.078125 C 5.875 -12.492188 6.140625 -12.046875 6.671875 -11.734375 C 7.203125 -11.429688 8.035156 -11.097656 9.171875 -10.734375 C 10.367188 -10.378906 11.359375 -10.007812 12.140625 -9.625 C 12.921875 -9.25 13.59375 -8.679688 14.15625 -7.921875 C 14.71875 -7.160156 15 -6.15625 15 -4.90625 C 15 -3.945312 14.726562 -3.066406 14.1875 -2.265625 C 13.65625 -1.472656 12.867188 -0.84375 11.828125 -0.375 C 10.796875 0.09375 9.5625 0.328125 8.125 0.328125 Z M 8.125 0.328125 "/></g></g></g><g fill="#ffffff" fill-opacity="1"><g transform="translate(107.800358, 21.837253)"><g><path d="M 6.609375 -7.328125 L 6.609375 -3.828125 L 13.96875 -3.828125 L 13.96875 0 L 2.109375 0 L 2.109375 -17.984375 L 13.71875 -17.984375 L 13.71875 -14.15625 L 6.609375 -14.15625 L 6.609375 -11.046875 L 13.453125 -11.046875 L 13.453125 -7.328125 Z M 6.609375 -7.328125 "/></g></g></g><g fill="#ffffff" fill-opacity="1"><g transform="translate(123.110726, 21.837253)"><g><path d="M 18.578125 0 L 13.921875 0 L 12.6875 -3.515625 L 5.953125 -3.515625 L 4.75 0 L 0.1875 0 L 7.015625 -17.984375 L 11.71875 -17.984375 Z M 7.140625 -7.265625 L 11.5625 -7.265625 L 9.34375 -13.515625 Z M 7.140625 -7.265625 "/></g></g></g><g fill="#ffffff" fill-opacity="1"><g transform="translate(141.837647, 21.837253)"><g><path d="M 12.453125 0 L 7.546875 -6.109375 L 6.609375 -6.109375 L 6.609375 0 L 2.109375 0 L 2.109375 -17.984375 L 8.6875 -17.984375 C 10.101562 -17.984375 11.34375 -17.734375 12.40625 -17.234375 C 13.46875 -16.734375 14.289062 -16.03125 14.875 -15.125 C 15.457031 -14.21875 15.75 -13.175781 15.75 -12 C 15.75 -10.8125 15.457031 -9.769531 14.875 -8.875 C 14.289062 -7.988281 13.457031 -7.304688 12.375 -6.828125 L 17.90625 0 Z M 6.609375 -14.203125 L 6.609375 -9.8125 L 8.484375 -9.8125 C 9.335938 -9.8125 10 -10.015625 10.46875 -10.421875 C 10.9375 -10.835938 11.171875 -11.363281 11.171875 -12 C 11.171875 -12.644531 10.9375 -13.171875 10.46875 -13.578125 C 10 -13.992188 9.335938 -14.203125 8.484375 -14.203125 Z M 6.609375 -14.203125 "/></g></g></g><g fill="#ffffff" fill-opacity="1"><g transform="translate(159.331518, 21.837253)"><g><path d="M 10.609375 0.328125 C 8.898438 0.328125 7.3125 -0.0546875 5.84375 -0.828125 C 4.375 -1.597656 3.203125 -2.691406 2.328125 -4.109375 C 1.460938 -5.523438 1.03125 -7.148438 1.03125 -8.984375 C 1.03125 -10.816406 1.460938 -12.441406 2.328125 -13.859375 C 3.203125 -15.285156 4.375 -16.382812 5.84375 -17.15625 C 7.3125 -17.925781 8.898438 -18.3125 10.609375 -18.3125 C 12.078125 -18.3125 13.445312 -18.03125 14.71875 -17.46875 C 15.988281 -16.90625 17.070312 -16.085938 17.96875 -15.015625 C 18.863281 -13.941406 19.492188 -12.6875 19.859375 -11.25 L 15.1875 -11.25 C 14.800781 -12.144531 14.210938 -12.859375 13.421875 -13.390625 C 12.628906 -13.929688 11.703125 -14.203125 10.640625 -14.203125 C 9.691406 -14.203125 8.832031 -13.972656 8.0625 -13.515625 C 7.289062 -13.066406 6.6875 -12.445312 6.25 -11.65625 C 5.8125 -10.875 5.59375 -9.984375 5.59375 -8.984375 C 5.59375 -7.992188 5.8125 -7.101562 6.25 -6.3125 C 6.6875 -5.53125 7.289062 -4.910156 8.0625 -4.453125 C 8.832031 -4.003906 9.691406 -3.78125 10.640625 -3.78125 C 11.734375 -3.78125 12.671875 -4.046875 13.453125 -4.578125 C 14.242188 -5.117188 14.828125 -5.84375 15.203125 -6.75 L 19.859375 -6.75 C 19.492188 -5.300781 18.863281 -4.039062 17.96875 -2.96875 C 17.082031 -1.894531 16.003906 -1.078125 14.734375 -0.515625 C 13.472656 0.046875 12.097656 0.328125 10.609375 0.328125 Z M 10.609375 0.328125 "/></g></g></g><g fill="#ffffff" fill-opacity="1"><g transform="translate(180.062171, 21.837253)"><g><path d="M 13.046875 -11.203125 L 13.046875 -17.984375 L 17.546875 -17.984375 L 17.546875 0 L 13.046875 0 L 13.046875 -7.140625 L 6.609375 -7.140625 L 6.609375 0 L 2.109375 0 L 2.109375 -17.984375 L 6.609375 -17.984375 L 6.609375 -11.203125 Z M 13.046875 -11.203125 "/></g></g></g></svg>